<?xml version="1.0" encoding="utf-8"?>
<!-- Generator: Adobe Illustrator 19.0.0, SVG Export Plug-In . SVG Version: 6.00 Build 0)  -->
<svg version="1.1" xmlns="http://www.w3.org/2000/svg" xmlns:xlink="http://www.w3.org/1999/xlink" x="0px" y="0px"
	 viewBox="0 0 14.5 1.5" style="enable-background:new 0 0 14.5 1.5;" xml:space="preserve">
<style type="text/css">
	.st0{fill:#00CBAC;}
</style>
<g id="Layer_1">
	<g id="XMLID_9_">
		<path id="XMLID_81_" class="st0" d="M0.3,1.2c0,0,0.9-0.3,2.2-0.5c0.7-0.1,1.4-0.2,2.2-0.3c0.4,0,0.8-0.1,1.3-0.1
			c0.4,0,0.9,0,1.3,0c0.9,0,1.7,0,2.6,0.1c0.8,0.1,1.6,0.2,2.2,0.3c1.3,0.2,2.2,0.5,2.2,0.5v0.1c0,0-3.5,0-7,0
			C3.8,1.3,0.3,1.3,0.3,1.2L0.3,1.2z"/>
	</g>
</g>
<g id="Layer_2">
</g>
</svg>
