<?xml version="1.0" encoding="utf-8"?>
<!-- Generator: Adobe Illustrator 19.0.0, SVG Export Plug-In . SVG Version: 6.00 Build 0)  -->
<svg version="1.1" id="Layer_1" xmlns="http://www.w3.org/2000/svg" xmlns:xlink="http://www.w3.org/1999/xlink" x="0px" y="0px"
	 viewBox="0 0 40 50" style="enable-background:new 0 0 40 50;" xml:space="preserve">
<style type="text/css">
	.st0{fill:#CCCCCC;stroke:#333333;stroke-width:2;stroke-miterlimit:10;}
	.st1{fill:#FFFFFF;stroke:#333333;stroke-width:0.25;stroke-miterlimit:10;}
	.st2{fill:#1A1A1A;}
	.st3{fill:#231F20;}
	.st4{fill:#333333;}
</style>
<circle id="XMLID_6_" class="st0" cx="19.3" cy="21.3" r="16.1"/>
<circle id="XMLID_2_" class="st1" cx="19.4" cy="21.1" r="13.9"/>
<path id="XMLID_11_" class="st2" d="M18.1,16.7c1.5,0.7,2.3,0.7,2.4,1.4c0.2,0.8-0.6,2-1.5,2.4c-1.3,0.5-2.8-0.7-3.4-1.2
	c-3.5-2.9-3.2-8.7-2.9-8.8c0.1,0,0.1,0.9,1,2.3C15.2,15.3,17.7,16.5,18.1,16.7z"/>
<path id="XMLID_4_" class="st3" d="M23.3,19.4c-1.4-0.8-1.9-1.5-2.6-1.1c-0.7,0.3-1.3,1.6-1.1,2.6c0.3,1.4,2.2,1.9,3,2.1
	c4.3,1.2,8.9-2.5,8.8-2.8c0-0.1-0.8,0.4-2.5,0.6C26.2,21,23.7,19.6,23.3,19.4z"/>
<path id="XMLID_5_" class="st3" d="M20.8,18c-0.8-0.6-2.5,0.6-2.8,0.7c-3,2-2.4,5.2-5,6.4c-1.4,0.7-2.9,0.3-3,0.8
	c-0.1,0.5,1.4,0.6,2.3,2c0.5,0.9,0.4,1.5,1.2,2.4c0.3,0.3,0.7,0.8,1,0.7c0.6-0.2-0.3-2.2,0.3-3.9c0.9-2.3,3.5-1.7,5.2-4.4
	C21.3,21,21.6,18.6,20.8,18z"/>
<path id="XMLID_10_" class="st4" d="M15.2,15.2c1.6,1.6,3.2,2.3,3.2,2.5c0,0.1-1-0.2-2-0.9c-2.4-1.6-3.3-4.2-3.3-4.3
	C13.1,12.4,13.7,13.7,15.2,15.2z"/>
<path id="XMLID_7_" class="st4" d="M25.2,20.4c2.2,0.6,4,0.4,4,0.5c0,0.1-1,0.3-2.2,0.2c-2.9-0.2-5-1.9-5-2
	C22,19,23.1,19.9,25.2,20.4z"/>
<path id="XMLID_13_" class="st3" d="M24,14.8c-0.6-0.1-0.6-0.2-1.2-0.4c-0.5-0.1-1-0.2-1.5,0c-0.3,0.1-0.5,0.3-0.7,0.4
	c-0.1,0.1-1.1,1.1-0.9,2.4c0.2,1.3,1.4,2.4,2.2,2.2c0.5-0.1,0.8-0.9,1.2-2.1c0.4-1,0.3-1.3,0.7-1.7c0.7-0.7,1.7-0.7,1.7-0.8
	C25.4,14.9,24.8,15,24,14.8z M22.3,15.4c-0.2,0-0.3-0.1-0.3-0.2s0.1-0.2,0.3-0.2c0.2,0,0.3,0.1,0.3,0.2S22.4,15.4,22.3,15.4z"/>
<path id="XMLID_3_" class="st2" d="M19.1,18.4c-0.2-0.2-1.2,0.6-1.8,1.3c-1.4,1.5-2.2,3.5-1.9,3.7c0.3,0.2,1.7-1.4,2.5-2.5
	C18.5,20,19.3,18.6,19.1,18.4z"/>
</svg>
