<?xml version="1.0" encoding="utf-8"?>
<!-- Generator: Adobe Illustrator 19.0.0, SVG Export Plug-In . SVG Version: 6.00 Build 0)  -->
<svg version="1.1" id="Layer_1" xmlns="http://www.w3.org/2000/svg" xmlns:xlink="http://www.w3.org/1999/xlink" x="0px" y="0px"
	 viewBox="0 0 63.3 16.4" style="enable-background:new 0 0 63.3 16.4;" xml:space="preserve">
<style type="text/css">
	.st0{fill:none;}
	.st1{fill:#FFFFFF;}
	.st2{font-family:'Garamond';}
	.st3{font-size:17px;}
	.st4{fill:#00CBAC;}
	.st5{font-family:'Harrington';}
	.st6{font-size:13px;}
</style>
<rect id="XMLID_2_" x="0.7" y="0.8" transform="matrix(1 -1.546056e-003 1.546056e-003 1 -1.109027e-002 2.335483e-002)" class="st0" width="28.8" height="12.7"/>
<text id="XMLID_3_" transform="matrix(0.4381 -6.791170e-004 1.550000e-003 1 0.647 11.9489)" class="st1 st2 st3">National </text>
<rect id="XMLID_4_" x="40.2" y="0.8" class="st0" width="29" height="15.1"/>
<text id="XMLID_5_" transform="matrix(0.4381 0 0 1 40.1871 12.0089)" class="st1 st2 st3">society</text>
<g id="XMLID_9_">
	<path id="XMLID_55_" class="st4" d="M26.6,14.7c0,0,0.9-0.3,2.2-0.5c0.7-0.1,1.4-0.2,2.2-0.3c0.4,0,0.8-0.1,1.3-0.1
		c0.4,0,0.9,0,1.3,0c0.9,0,1.8,0,2.6,0.1c0.8,0.1,1.6,0.2,2.2,0.3c1.3,0.2,2.2,0.5,2.2,0.5v0.1c0,0-3.5,0-7,0c-3.5,0-7,0-7,0V14.7z"
		/>
</g>
<rect id="XMLID_8_" x="27.6" y="3" transform="matrix(1 -1.546106e-003 1.546106e-003 1 -1.334685e-002 5.321976e-002)" class="st0" width="13.7" height="11.3"/>
<text id="XMLID_7_" transform="matrix(0.4381 -6.791170e-004 1.550000e-003 1 27.5367 12.1577)" class="st4 st5 st6">BIRD</text>
</svg>
