<?xml version="1.0" encoding="utf-8"?>
<!-- Generator: Adobe Illustrator 19.0.0, SVG Export Plug-In . SVG Version: 6.00 Build 0)  -->
<svg version="1.1" id="Layer_1" xmlns="http://www.w3.org/2000/svg" xmlns:xlink="http://www.w3.org/1999/xlink" x="0px" y="0px"
	 viewBox="0 0 58.6 20" style="enable-background:new 0 0 58.6 20;" xml:space="preserve">
<style type="text/css">
	.st0{fill:none;}
	.st1{fill:#FFFFFF;}
	.st2{font-family:'PalaceScriptMT';}
	.st3{font-size:23px;}
	.st4{fill:#00CBAC;}
	.st5{font-family:'Harrington';}
	.st6{font-size:13px;}
</style>
<rect id="XMLID_2_" x="0.4" y="3.7" transform="matrix(1 -1.546056e-003 1.546056e-003 1 -1.553944e-002 2.297175e-002)" class="st0" width="28.8" height="12.7"/>
<text id="XMLID_3_" transform="matrix(0.4381 -6.791170e-004 1.550000e-003 1 0.3957 13.9593)" class="st1 st2 st3">National </text>
<rect id="XMLID_8_" x="25.7" y="7.8" transform="matrix(1 -1.546106e-003 1.546106e-003 1 -2.069309e-002 5.032649e-002)" class="st0" width="13.7" height="11.3"/>
<text id="XMLID_7_" transform="matrix(0.4381 -6.791170e-004 1.550000e-003 1 25.6617 16.9077)" class="st4 st5 st6">BIRD</text>
<g id="XMLID_9_">
	<path id="XMLID_81_" class="st4" d="M24.7,19.5c0,0,0.9-0.3,2.2-0.5c0.7-0.1,1.4-0.2,2.2-0.3c0.4,0,0.8-0.1,1.3-0.1
		c0.4,0,0.9,0,1.3,0c0.9,0,1.8,0,2.6,0.1c0.8,0.1,1.6,0.2,2.2,0.3c1.3,0.2,2.2,0.5,2.2,0.5v0.1c0,0-3.5,0-7,0
		C28.2,19.6,24.7,19.5,24.7,19.5L24.7,19.5z"/>
</g>
<rect id="XMLID_4_" x="38.9" y="4.1" class="st0" width="19.7" height="10.7"/>
<text id="XMLID_5_" transform="matrix(0.4381 0 0 1 38.8746 14.4572)" class="st1 st2 st3">society</text>
</svg>
