<?xml version="1.0" encoding="utf-8"?>
<!-- Generator: Adobe Illustrator 19.0.0, SVG Export Plug-In . SVG Version: 6.00 Build 0)  -->
<svg version="1.1" id="Layer_1" xmlns="http://www.w3.org/2000/svg" xmlns:xlink="http://www.w3.org/1999/xlink" x="0px" y="0px"
	 viewBox="0 0 841.9 595.3" style="enable-background:new 0 0 841.9 595.3;" xml:space="preserve">
<style type="text/css">
	.st0{stroke:#000000;stroke-miterlimit:10;}
	.st1{fill:none;stroke:#000000;stroke-miterlimit:10;}
	.st2{fill:#FFFFFF;}
	.st3{stroke:#FFFFFF;stroke-miterlimit:10;}
	.st4{fill:none;stroke:#000000;stroke-width:3;stroke-miterlimit:10;}
	.st5{fill:none;stroke:#000000;stroke-width:2;stroke-miterlimit:10;}
	.st6{stroke:#000000;stroke-width:2;stroke-miterlimit:10;}
</style>
<path id="XMLID_1_" class="st0" d="M112.3,550.3c-0.2,0.3-1.5,1.6-3.6,1.7c-2.6,0.2-4.3-1.5-4.4-1.7c0-122.4,0-244.9,0-367.3h8.1
	V550.3z"/>
<path id="XMLID_10_" class="st1" d="M98.4,28.8L37.4,92.9L70,186.1l81.3-6.5l17.5-97.2L98.4,28.8z M147.5,173.7l-74.8,5.9L42.7,93.9
	L98.9,35l64.8,49.3L147.5,173.7z"/>
<path id="XMLID_13_" class="st0" d="M98.9,35L42.7,93.9l30.1,85.7l74.8-5.9l16.1-89.4L98.9,35z M108.1,168.4
	c-12.7,0.8-23.7-12.1-24.8-28.8c-1-16.7,8.4-30.9,21-31.6c12.7-0.8,23.7,12.1,24.8,28.8C130.2,153.5,120.8,167.6,108.1,168.4z"/>
<path id="XMLID_15_" class="st0" d="M751.3,548.3c-0.2,0.3-1.5,1.6-3.6,1.7c-2.6,0.2-4.3-1.5-4.4-1.7c0-122.4,0-244.9,0-367.3h8.1
	V548.3z"/>
<path id="XMLID_7_" class="st1" d="M751.1,25.7l-68.6,55.9l20.8,96.6l81.4,3.7l29.5-94.2L751.1,25.7z M781.7,175.6l-74.9-3.4
	l-19.1-88.8l63.1-51.5l58.1,57L781.7,175.6z"/>
<path id="XMLID_3_" class="st0" d="M750.8,31.9l-63.1,51.5l19.1,88.8l74.9,3.4l27.2-86.7L750.8,31.9z M743.3,165.4
	c-12.7-0.8-22.1-15-21-31.7c1.1-16.7,12.2-29.6,24.8-28.8c12.6,0.8,22.1,15,21,31.7C767.1,153.3,756,166.2,743.3,165.4z"/>
<g id="XMLID_2_">
	<path id="XMLID_55_" d="M79.3,275c0,0,0.1-0.2,0.3-0.5c0.2-0.3,0.4-0.8,0.7-1.4c0.6-1.3,1.4-3.2,2.4-5.8c1-2.6,2.2-5.8,3.6-9.5
		c1.4-3.7,3.1-8.1,5.3-12.7c1.1-2.3,2.3-4.8,3.9-7.2c0.8-1.2,1.7-2.4,2.8-3.5c1.1-1.1,2.4-2.1,4.1-2.5c0.2,0,0.4-0.1,0.6-0.1l0.7,0
		c0.5,0,0.8,0.1,1.2,0.1c0.8,0.1,1.6,0.2,2.4,0.3c1.6,0.2,3.2,0.4,4.9,0.7c3.3,0.4,6.8,0.8,10.3,1.3c3.6,0.4,7.2,0.9,11,1.3
		c3.8,0.5,7.7,1,11.7,1.3c8,0.8,16.4,1.7,25.2,2.6c8.8,0.8,18,1.6,27.5,2.4c9.5,0.7,19.3,1.4,29.4,2.1c10.1,0.6,20.5,1.3,31.1,1.8
		c10.6,0.5,21.5,1.1,32.5,1.5c5.5,0.2,11.1,0.5,16.7,0.7c5.6,0.2,11.3,0.4,16.9,0.5c5.7,0.2,11.4,0.3,17.1,0.5
		c5.7,0.1,11.5,0.3,17.3,0.4c23.2,0.4,46.8,0.6,70.3,0.5l8.8-0.1l8.8-0.1c5.9-0.1,11.8-0.2,17.6-0.3c11.7-0.3,23.4-0.6,35-1
		c11.6-0.3,23.1-0.8,34.4-1.3c11.4-0.5,22.6-1,33.6-1.6c22.1-1.1,43.4-2.3,63.6-3.5c20.2-1.2,39.3-2.6,56.9-4.1
		c4.4-0.4,8.7-0.8,12.9-1.1c4.2-0.4,8.3-0.8,12.3-1.2c4-0.4,7.9-0.9,11.7-1.3c1.9-0.2,3.7-0.5,5.6-0.8c1.8-0.3,3.6-0.5,5.4-0.8
		c1.7-0.4,3.5-0.7,5.1-1.1c0.8-0.2,1.7-0.4,2.6-0.6c0.9-0.2,1.7-0.3,2.6-0.3c0.9-0.1,1.7-0.1,2.6,0c0.4,0,0.8,0.1,1.3,0.1
		c0.4,0.1,0.8,0.1,1.2,0.2c1.7,0.3,3.2,0.8,4.7,1.4c2.9,1.2,5.5,3,7.7,4.9c2.2,1.9,4,3.9,5.7,5.9c3.3,4.1,5.6,8,7.5,11.6
		c1.9,3.5,3.3,6.6,4.4,9.2c1.1,2.5,1.9,4.5,2.4,5.8c0.5,1.3,0.8,2,0.8,2s-0.3-0.7-0.8-2c-0.6-1.3-1.4-3.3-2.6-5.8
		c-1.2-2.5-2.7-5.6-4.7-9c-2-3.5-4.4-7.4-7.7-11.3c-1.6-2-3.5-3.9-5.7-5.7c-2.2-1.8-4.6-3.4-7.5-4.5c-1.4-0.5-2.9-1-4.4-1.2
		c-0.4-0.1-0.8-0.1-1.2-0.2c-0.4,0-0.8-0.1-1.2-0.1c-0.8,0-1.6,0-2.4,0c-0.8,0.1-1.6,0.2-2.4,0.3c-0.8,0.1-1.6,0.4-2.5,0.6
		c-1.7,0.4-3.5,0.8-5.2,1.2c-14.2,2.5-30.3,4.3-47.9,6c-17.6,1.7-36.7,3.3-56.9,4.8c-20.2,1.5-41.5,2.9-63.6,4.1
		c-11,0.6-22.3,1.1-33.6,1.7c-11.4,0.5-22.9,1-34.5,1.4c-11.6,0.5-23.3,0.8-35.1,1.1c-5.9,0.1-11.8,0.3-17.6,0.4l-8.9,0.2l-8.8,0.1
		c-23.6,0.1-47.2-0.2-70.4-0.7c-5.8-0.1-11.6-0.3-17.3-0.5c-5.8-0.2-11.5-0.3-17.2-0.5c-5.7-0.2-11.3-0.4-17-0.6
		c-5.6-0.3-11.2-0.5-16.7-0.7c-11-0.5-21.9-1.1-32.5-1.7c-10.6-0.6-21-1.5-31.1-2.1c-10.1-0.8-19.9-1.7-29.4-2.4
		c-9.5-0.9-18.7-1.8-27.5-2.7c-8.8-1-17.2-2-25.2-2.9c-4-0.4-7.9-1-11.7-1.6c-3.8-0.5-7.4-1-11-1.5c-3.6-0.5-7-1-10.3-1.5
		c-1.7-0.3-3.3-0.5-4.9-0.8c-0.8-0.1-1.6-0.2-2.4-0.4c-0.4,0-0.8-0.2-1.1-0.1l-0.5,0c-0.2,0-0.3,0.1-0.5,0.1
		c-1.4,0.2-2.6,1.1-3.6,2.1c-1,1-1.9,2.1-2.7,3.3c-1.6,2.3-2.9,4.7-4,7c-2.3,4.6-4,8.9-5.5,12.6c-1.5,3.7-2.8,6.9-3.8,9.4
		c-1.1,2.6-1.9,4.5-2.6,5.8c-0.3,0.6-0.6,1.1-0.8,1.4C79.4,274.8,79.3,275,79.3,275z"/>
</g>
<g id="XMLID_19_">
	<path id="XMLID_16_" d="M198.9,258.3L198.9,258.3h-2.6l0.2-53.1h1.1l2.7,17.2c-0.2,14.6-0.2,20.3-0.1,21.9c0,0.3,0.1,0.7,0,1.3
		c-0.3,2.2-1.8,2.7-1.6,4c0.1,1.1,1.2,1.1,1.6,2.7c0.2,0.7,0.1,1.1,0,2.2c0,0.6-0.1,1.3-0.1,2.2C200,257.4,199.6,258.1,198.9,258.3z
		"/>
	<path id="XMLID_18_" d="M201.6,258.3L201.6,258.3h2.6l-0.2-53.1h-1.1l-2.7,17.2c0.2,14.6,0.2,20.3,0.1,21.9c0,0.3-0.1,0.7,0,1.3
		c0.3,2.2,1.8,2.7,1.6,4c-0.1,1.1-1.2,1.1-1.6,2.7c-0.2,0.7-0.1,1.1,0,2.2c0,0.6,0.1,1.3,0.1,2.2
		C200.4,257.4,200.9,258.1,201.6,258.3z"/>
	<g id="XMLID_20_">
		<path id="XMLID_29_" class="st2" d="M197.2,234.8c1-0.7,1.8-1.5,2.5-2.4c0.7-0.9,1.1-2,1.4-3.2c0.2-0.6,0.3-1.1,0.4-1.7
			c0.1-0.6,0.2-1.1,0.3-1.7c0-0.3,0-0.6-0.1-0.8c-0.1-0.3-0.1-0.6-0.2-0.8c-0.2-0.5-0.7-0.8-1.2-0.8l0,0c-0.4,0-0.8,0.1-1.1,0.3
			c-0.2,0.1-0.3,0.2-0.5,0.4c-0.1,0.1-0.3,0.3-0.4,0.5c-0.4,0.7-0.5,1.5-0.2,2.3c0.1,0.4,0.3,0.7,0.6,1c0.3,0.3,0.7,0.4,1,0.3
			c0.4,0,0.7-0.2,1.1-0.4c0.2-0.1,0.3-0.3,0.5-0.4c0.1-0.1,0.1-0.2,0.2-0.2l0.1-0.1l0-0.1l0,0c0,0,0,0,0.1-0.1c0.1-0.1,0.2,0,0.3,0
			c0.1,0.3,0,0.1,0.1,0.1l0,0l0,0l0,0l-0.1,0.2c0,0-0.1,0.3-0.2,0.4c0,0.2-0.1,0.4-0.1,0.6l-0.1,0.6c0,0.2-0.1,0.4-0.2,0.6
			c-0.1,0.2-0.1,0.3-0.2,0.6l-0.3,0.5l-0.3,0.5c-0.1,0.2-0.2,0.4-0.3,0.5c-0.5,0.6-1,1.2-1.5,1.8
			C198.4,233.8,197.8,234.3,197.2,234.8z M197.2,234.8c0.6-0.5,1.1-1.1,1.6-1.7c0.5-0.6,1-1.2,1.4-1.8c0.1-0.2,0.2-0.3,0.3-0.5
			l0.2-0.5l0.2-0.5c0.1-0.1,0.1-0.4,0.2-0.5c0-0.2,0.1-0.4,0.1-0.5l0.1-0.6c0-0.2,0.1-0.4,0.1-0.6c0.1-0.2,0-0.4,0.3-0.7l-0.1,0.2
			l0,0l0,0l0,0c0,0.1-0.1-0.1,0.1,0.1c0,0,0.2,0.1,0.2,0c0.1-0.1,0.1-0.1,0.1,0l0,0l0,0.1l-0.1,0.1c-0.1,0.1-0.1,0.2-0.2,0.3
			c-0.2,0.2-0.3,0.3-0.5,0.5c-0.4,0.3-0.8,0.5-1.3,0.5c-0.5,0-1-0.1-1.4-0.4c-0.4-0.3-0.6-0.8-0.7-1.2c-0.3-0.9-0.2-1.9,0.3-2.7
			c0.1-0.2,0.3-0.4,0.4-0.6c0.2-0.2,0.4-0.3,0.6-0.4c0.4-0.2,0.9-0.3,1.4-0.3l0,0l0,0c0.6,0.1,1.3,0.5,1.6,1.1
			c0.2,0.3,0.2,0.6,0.3,0.9c0.1,0.3,0.1,0.6,0,0.9c0,0.6-0.2,1.2-0.3,1.8c-0.1,0.6-0.3,1.1-0.5,1.7c-0.4,1.1-0.8,2.3-1.6,3.2
			C199.1,233.4,198.2,234.2,197.2,234.8z"/>
	</g>
</g>
<g id="XMLID_21_">
	<path id="XMLID_32_" d="M351.3,267.2L351.3,267.2h-2.6l0.2-53.1h1.1l2.7,17.2c-0.2,14.6-0.2,20.3-0.1,21.9c0,0.3,0.1,0.7,0,1.3
		c-0.3,2.2-1.8,2.7-1.6,4c0.1,1.1,1.2,1.1,1.6,2.7c0.2,0.7,0.1,1.1,0,2.2c0,0.6-0.1,1.3-0.1,2.2C352.5,266.3,352,267,351.3,267.2z"
		/>
	<path id="XMLID_27_" d="M354,267.2L354,267.2h2.6l-0.2-53.1h-1.1l-2.7,17.2c0.2,14.6,0.2,20.3,0.1,21.9c0,0.3-0.1,0.7,0,1.3
		c0.3,2.2,1.8,2.7,1.6,4c-0.1,1.1-1.2,1.1-1.6,2.7c-0.2,0.7-0.1,1.1,0,2.2c0,0.6,0.1,1.3,0.1,2.2C352.8,266.3,353.3,267,354,267.2z"
		/>
	<g id="XMLID_22_">
		<path id="XMLID_24_" class="st2" d="M349.7,243.7c1-0.7,1.8-1.5,2.5-2.4c0.7-0.9,1.1-2,1.4-3.2c0.2-0.6,0.3-1.1,0.4-1.7
			c0.1-0.6,0.2-1.1,0.3-1.7c0-0.3,0-0.6-0.1-0.8c-0.1-0.3-0.1-0.6-0.2-0.8c-0.2-0.5-0.7-0.8-1.2-0.8l0,0c-0.4,0-0.8,0.1-1.1,0.3
			c-0.2,0.1-0.3,0.2-0.5,0.4c-0.1,0.1-0.3,0.3-0.4,0.5c-0.4,0.7-0.5,1.5-0.2,2.3c0.1,0.4,0.3,0.7,0.6,1c0.3,0.3,0.7,0.4,1,0.3
			c0.4,0,0.7-0.2,1.1-0.4c0.2-0.1,0.3-0.3,0.5-0.4c0.1-0.1,0.1-0.2,0.2-0.2l0.1-0.1l0-0.1l0,0c0,0,0,0,0.1-0.1c0.1-0.1,0.2,0,0.3,0
			c0.1,0.3,0,0.1,0.1,0.1l0,0l0,0l0,0l-0.1,0.2c0,0-0.1,0.3-0.2,0.4c0,0.2-0.1,0.4-0.1,0.6l-0.1,0.6c0,0.2-0.1,0.4-0.2,0.6
			c-0.1,0.2-0.1,0.3-0.2,0.6l-0.3,0.5l-0.3,0.5c-0.1,0.2-0.2,0.4-0.3,0.5c-0.5,0.6-1,1.2-1.5,1.8
			C350.9,242.7,350.3,243.2,349.7,243.7z M349.7,243.7c0.6-0.5,1.1-1.1,1.6-1.7c0.5-0.6,1-1.2,1.4-1.8c0.1-0.2,0.2-0.3,0.3-0.5
			l0.2-0.5l0.2-0.5c0.1-0.1,0.1-0.4,0.2-0.5c0-0.2,0.1-0.4,0.1-0.5l0.1-0.6c0-0.2,0.1-0.4,0.1-0.6c0.1-0.2,0-0.4,0.3-0.7l-0.1,0.2
			l0,0l0,0l0,0c0,0.1-0.1-0.1,0.1,0.1c0,0,0.2,0.1,0.2,0c0.1-0.1,0.1-0.1,0.1,0l0,0l0,0.1l-0.1,0.1c-0.1,0.1-0.1,0.2-0.2,0.3
			c-0.2,0.2-0.3,0.3-0.5,0.5c-0.4,0.3-0.8,0.5-1.3,0.5c-0.5,0-1-0.1-1.4-0.4c-0.4-0.3-0.6-0.8-0.7-1.2c-0.3-0.9-0.2-1.9,0.3-2.7
			c0.1-0.2,0.3-0.4,0.4-0.6c0.2-0.2,0.4-0.3,0.6-0.4c0.4-0.2,0.9-0.3,1.4-0.3l0,0l0,0c0.6,0.1,1.3,0.5,1.6,1.1
			c0.2,0.3,0.2,0.6,0.3,0.9c0.1,0.3,0.1,0.6,0,0.9c0,0.6-0.2,1.2-0.3,1.8c-0.1,0.6-0.3,1.1-0.5,1.7c-0.4,1.1-0.8,2.3-1.6,3.2
			C351.6,242.3,350.7,243.1,349.7,243.7z"/>
	</g>
</g>
<g id="XMLID_33_">
	<path id="XMLID_40_" d="M520.2,264.2L520.2,264.2h-2.6l0.2-53.1h1.1l2.7,17.2c-0.2,14.6-0.2,20.3-0.1,21.9c0,0.3,0.1,0.7,0,1.3
		c-0.3,2.2-1.8,2.7-1.6,4c0.1,1.1,1.2,1.1,1.6,2.7c0.2,0.7,0.1,1.1,0,2.2c0,0.6-0.1,1.3-0.1,2.2
		C521.4,263.3,520.9,263.9,520.2,264.2z"/>
	<path id="XMLID_39_" d="M522.9,264.2L522.9,264.2h2.6l-0.2-53.1h-1.1l-2.7,17.2c0.2,14.6,0.2,20.3,0.1,21.9c0,0.3-0.1,0.7,0,1.3
		c0.3,2.2,1.8,2.7,1.6,4c-0.1,1.1-1.2,1.1-1.6,2.7c-0.2,0.7-0.1,1.1,0,2.2c0,0.6,0.1,1.3,0.1,2.2
		C521.7,263.3,522.2,263.9,522.9,264.2z"/>
	<g id="XMLID_34_">
		<path id="XMLID_36_" class="st2" d="M518.6,240.6c1-0.7,1.8-1.5,2.5-2.4c0.7-0.9,1.1-2,1.4-3.2c0.2-0.6,0.3-1.1,0.4-1.7
			c0.1-0.6,0.2-1.1,0.3-1.7c0-0.3,0-0.6-0.1-0.8c-0.1-0.3-0.1-0.6-0.2-0.8c-0.2-0.5-0.7-0.8-1.2-0.8l0,0c-0.4,0-0.8,0.1-1.1,0.3
			c-0.2,0.1-0.3,0.2-0.5,0.4c-0.1,0.1-0.3,0.3-0.4,0.5c-0.4,0.7-0.5,1.5-0.2,2.3c0.1,0.4,0.3,0.7,0.6,1c0.3,0.3,0.7,0.4,1,0.3
			c0.4,0,0.7-0.2,1.1-0.4c0.2-0.1,0.3-0.3,0.5-0.4c0.1-0.1,0.1-0.2,0.2-0.2l0.1-0.1l0-0.1l0,0c0,0,0,0,0.1-0.1c0.1-0.1,0.2,0,0.3,0
			c0.1,0.3,0,0.1,0.1,0.1l0,0l0,0l0,0l-0.1,0.2c0,0-0.1,0.3-0.2,0.4c0,0.2-0.1,0.4-0.1,0.6l-0.1,0.6c0,0.2-0.1,0.4-0.2,0.6
			c-0.1,0.2-0.1,0.3-0.2,0.6l-0.3,0.5l-0.3,0.5c-0.1,0.2-0.2,0.4-0.3,0.5c-0.5,0.6-1,1.2-1.5,1.8
			C519.8,239.6,519.2,240.2,518.6,240.6z M518.6,240.6c0.6-0.5,1.1-1.1,1.6-1.7c0.5-0.6,1-1.2,1.4-1.8c0.1-0.2,0.2-0.3,0.3-0.5
			l0.2-0.5l0.2-0.5c0.1-0.1,0.1-0.4,0.2-0.5c0-0.2,0.1-0.4,0.1-0.5l0.1-0.6c0-0.2,0.1-0.4,0.1-0.6c0.1-0.2,0-0.4,0.3-0.7l-0.1,0.2
			l0,0l0,0l0,0c0,0.1-0.1-0.1,0.1,0.1c0,0,0.2,0.1,0.2,0c0.1-0.1,0.1-0.1,0.1,0l0,0l0,0.1l-0.1,0.1c-0.1,0.1-0.1,0.2-0.2,0.3
			c-0.2,0.2-0.3,0.3-0.5,0.5c-0.4,0.3-0.8,0.5-1.3,0.5c-0.5,0-1-0.1-1.4-0.4c-0.4-0.3-0.6-0.8-0.7-1.2c-0.3-0.9-0.2-1.9,0.3-2.7
			c0.1-0.2,0.3-0.4,0.4-0.6c0.2-0.2,0.4-0.3,0.6-0.4c0.4-0.2,0.9-0.3,1.4-0.3l0,0l0,0c0.6,0.1,1.3,0.5,1.6,1.1
			c0.2,0.3,0.2,0.6,0.3,0.9c0.1,0.3,0.1,0.6,0,0.9c0,0.6-0.2,1.2-0.3,1.8c-0.1,0.6-0.3,1.1-0.5,1.7c-0.4,1.1-0.8,2.3-1.6,3.2
			C520.5,239.3,519.6,240,518.6,240.6z"/>
	</g>
</g>
<g id="XMLID_41_">
	<path id="XMLID_48_" d="M665.5,258.3L665.5,258.3H663l0.2-53.1h1.1l2.7,17.2c-0.2,14.6-0.2,20.3-0.1,21.9c0,0.3,0.1,0.7,0,1.3
		c-0.3,2.2-1.8,2.7-1.6,4c0.1,1.1,1.2,1.1,1.6,2.7c0.2,0.7,0.1,1.1,0,2.2c0,0.6-0.1,1.3-0.1,2.2
		C666.7,257.4,666.2,258.1,665.5,258.3z"/>
	<path id="XMLID_47_" d="M668.2,258.3L668.2,258.3h2.6l-0.2-53.1h-1.1l-2.7,17.2c0.2,14.6,0.2,20.3,0.1,21.9c0,0.3-0.1,0.7,0,1.3
		c0.3,2.2,1.8,2.7,1.6,4c-0.1,1.1-1.2,1.1-1.6,2.7c-0.2,0.7-0.1,1.1,0,2.2c0,0.6,0.1,1.3,0.1,2.2
		C667.1,257.4,667.5,258.1,668.2,258.3z"/>
	<g id="XMLID_42_">
		<path id="XMLID_44_" class="st2" d="M663.9,234.8c1-0.7,1.8-1.5,2.5-2.4c0.7-0.9,1.1-2,1.4-3.2c0.2-0.6,0.3-1.1,0.4-1.7
			c0.1-0.6,0.2-1.1,0.3-1.7c0-0.3,0-0.6-0.1-0.8c-0.1-0.3-0.1-0.6-0.2-0.8c-0.2-0.5-0.7-0.8-1.2-0.8l0,0c-0.4,0-0.8,0.1-1.1,0.3
			c-0.2,0.1-0.3,0.2-0.5,0.4c-0.1,0.1-0.3,0.3-0.4,0.5c-0.4,0.7-0.5,1.5-0.2,2.3c0.1,0.4,0.3,0.7,0.6,1c0.3,0.3,0.7,0.4,1,0.3
			c0.4,0,0.7-0.2,1.1-0.4c0.2-0.1,0.3-0.3,0.5-0.4c0.1-0.1,0.1-0.2,0.2-0.2l0.1-0.1l0-0.1l0,0c0,0,0,0,0.1-0.1c0.1-0.1,0.2,0,0.3,0
			c0.1,0.3,0,0.1,0.1,0.1l0,0l0,0l0,0l-0.1,0.2c0,0-0.1,0.3-0.2,0.4c0,0.2-0.1,0.4-0.1,0.6l-0.1,0.6c0,0.2-0.1,0.4-0.2,0.6
			c-0.1,0.2-0.1,0.3-0.2,0.6l-0.3,0.5l-0.3,0.5c-0.1,0.2-0.2,0.4-0.3,0.5c-0.5,0.6-1,1.2-1.5,1.8
			C665.1,233.8,664.5,234.3,663.9,234.8z M663.9,234.8c0.6-0.5,1.1-1.1,1.6-1.7c0.5-0.6,1-1.2,1.4-1.8c0.1-0.2,0.2-0.3,0.3-0.5
			l0.2-0.5l0.2-0.5c0.1-0.1,0.1-0.4,0.2-0.5c0-0.2,0.1-0.4,0.1-0.5l0.1-0.6c0-0.2,0.1-0.4,0.1-0.6c0.1-0.2,0-0.4,0.3-0.7l-0.1,0.2
			l0,0l0,0l0,0c0,0.1-0.1-0.1,0.1,0.1c0,0,0.2,0.1,0.2,0c0.1-0.1,0.1-0.1,0.1,0l0,0l0,0.1l-0.1,0.1c-0.1,0.1-0.1,0.2-0.2,0.3
			c-0.2,0.2-0.3,0.3-0.5,0.5c-0.4,0.3-0.8,0.5-1.3,0.5c-0.5,0-1-0.1-1.4-0.4c-0.4-0.3-0.6-0.8-0.7-1.2c-0.3-0.9-0.2-1.9,0.3-2.7
			c0.1-0.2,0.3-0.4,0.4-0.6c0.2-0.2,0.4-0.3,0.6-0.4c0.4-0.2,0.9-0.3,1.4-0.3l0,0l0,0c0.6,0.1,1.3,0.5,1.6,1.1
			c0.2,0.3,0.2,0.6,0.3,0.9c0.1,0.3,0.1,0.6,0,0.9c0,0.6-0.2,1.2-0.3,1.8c-0.1,0.6-0.3,1.1-0.5,1.7c-0.4,1.1-0.8,2.3-1.6,3.2
			C665.8,233.4,664.9,234.2,663.9,234.8z"/>
	</g>
</g>
<g id="XMLID_17_">
	<polygon id="XMLID_59_" class="st2" points="99.9,47.4 53,93.5 99.1,46.6 	"/>
</g>
<g id="XMLID_50_">
	<polygon id="XMLID_61_" class="st2" points="99.8,46.5 151.1,87.6 99.2,47.3 	"/>
</g>
<g id="XMLID_56_">
	<polygon id="XMLID_65_" class="st2" points="751.1,43.2 699.2,83.6 750.4,42.4 	"/>
</g>
<g id="XMLID_51_">
	<polygon id="XMLID_67_" class="st2" points="751.1,42.3 797.3,89.1 750.4,43 	"/>
</g>
<path id="XMLID_49_" class="st3" d="M106.2,554.6L90,509.9c-0.2-0.6-0.4-1.3-0.5-2l-4.2-38.4l16.4,34.4L106.2,554.6z"/>
<path id="XMLID_53_" class="st3" d="M110.2,554.6l16.2-44.6c0.2-0.6,0.4-1.3,0.5-2l4.2-38.4L114.7,504L110.2,554.6z"/>
<path id="XMLID_62_" class="st3" d="M745.2,554.1L729,509.4c-0.2-0.6-0.4-1.3-0.5-2l-4.2-38.4l16.4,34.4L745.2,554.1z"/>
<path id="XMLID_57_" class="st3" d="M749.3,554.1l16.2-44.6c0.2-0.6,0.4-1.3,0.5-2l4.2-38.4l-16.4,34.4L749.3,554.1z"/>
<line id="XMLID_52_" class="st4" x1="17" y1="552" x2="837" y2="552"/>
<path id="XMLID_63_" class="st5" d="M219.2,552c2-0.5,0.8-13.1-1.3-22.5c-2.1-9.2-5.2-16.4-7.7-21.2c-1.1,5.6-2.1,14.2,0,24
	C212.3,542.4,217.3,552.5,219.2,552z"/>
<path id="XMLID_70_" class="st5" d="M220.3,552c1.5,0.5,6.8-10.1,9.6-20.9c2.5-9.9,2.5-18.5,2.1-24.4c-2.5,5.3-5.9,13.1-8.5,23.1
	C221.2,538.5,218.7,551.5,220.3,552z"/>
<path id="XMLID_75_" class="st5" d="M600.2,552c2-0.5,0.8-13.1-1.3-22.5c-2.1-9.2-5.2-16.4-7.7-21.2c-1.1,5.6-2.1,14.2,0,24
	C593.3,542.4,598.3,552.5,600.2,552z"/>
<path id="XMLID_74_" class="st5" d="M601.3,552c1.5,0.5,6.8-10.1,9.6-20.9c2.5-9.9,2.5-18.5,2.1-24.4c-2.5,5.3-5.9,13.1-8.5,23.1
	C602.2,538.5,599.7,551.5,601.3,552z"/>
<path id="XMLID_73_" class="st6" d="M451.5,552c2-0.5,0.8-13.1-1.3-22.5c-2.1-9.2-5.2-16.4-7.7-21.2c-1.1,5.6-2.1,14.2,0,24
	C444.6,542.4,449.6,552.5,451.5,552z"/>
<path id="XMLID_72_" class="st6" d="M452.6,552c1.5,0.5,6.8-10.1,9.6-20.9c2.5-9.9,2.5-18.5,2.1-24.4c-2.5,5.3-5.9,13.1-8.5,23.1
	C453.5,538.5,451.1,551.5,452.6,552z"/>
<g id="XMLID_71_">
	<path id="XMLID_80_" d="M448.3,472.8c0,0,0.1,0.3,0.2,0.8c0.1,0.5,0.4,1.3,0.6,2.3c0.5,2,1.3,4.9,2,8.4c0.7,3.5,1.4,7.6,1.9,12.1
		c0.3,2.2,0.5,4.5,0.7,6.9c0.2,2.3,0.3,4.7,0.4,7.1c0.1,2.4,0.1,4.8,0.1,7.1c0,2.4-0.1,4.7-0.2,6.9c-0.2,4.5-0.6,8.7-1,12.2
		c-0.4,3.6-1,6.5-1.3,8.6c-0.2,1-0.4,1.8-0.5,2.4c-0.1,0.5-0.2,0.8-0.2,0.8s0.1-1.2,0.3-3.3c0.2-2.1,0.4-5.1,0.6-8.6
		c0.2-3.6,0.3-7.7,0.4-12.2c0-2.2,0-4.5,0-6.9c0-2.3-0.1-4.7-0.2-7.1c-0.2-4.7-0.5-9.5-0.9-13.9c-0.2-2.2-0.4-4.4-0.6-6.4
		c-0.2-2-0.5-3.9-0.7-5.7c-0.5-3.5-0.9-6.5-1.2-8.5C448.4,473.9,448.3,472.8,448.3,472.8z"/>
</g>
<polygon id="XMLID_68_" class="st0" points="457.8,480.8 452.9,477.8 455,483.2 451,479 451.8,484.8 448.8,479.7 448.2,485.5 
	446.6,480 444.6,485.4 444.3,479.6 441.1,484.4 442.2,478.7 437.9,482.7 440.4,477.4 435.2,480.2 438.9,475.6 433.3,477.1 
	437.9,473.6 432.1,473.7 437.4,471.4 431.7,470.1 437.5,469.1 432.3,466.5 438.1,466.9 433.7,463.1 439.2,464.9 435.8,460.2 
	440.8,463.2 438.6,457.8 442.7,462 441.9,456.2 444.8,461.3 445.5,455.5 447.1,461 449.1,455.6 449.4,461.4 452.6,456.6 
	451.5,462.3 455.8,458.3 453.3,463.6 458.4,460.8 454.8,465.4 460.4,463.9 455.8,467.4 461.6,467.3 456.2,469.6 461.9,470.9 
	456.2,471.9 461.4,474.5 455.6,474.1 460,477.9 454.5,476.1 "/>
</svg>
